# Blender 4.5.2 LTS
# www.blender.org
mtllib Carro_cofre.mtl
g Cofre_Malla
v 0.401934 -0.002079 0.004567
v 0.251080 -0.003303 0.701990
v 0.358835 -0.002429 0.353278
v 0.511253 -0.003855 0.353278
v 0.511198 -0.006518 0.701990
v -0.042895 -0.012463 0.932798
v 0.226027 -0.020409 0.936889
v 0.734018 -0.018540 0.353278
v 0.733538 -0.024755 0.701990
v 0.510744 -0.028227 0.940980
v 0.732580 -0.037165 0.941172
v 1.501009 -0.122609 0.701990
v 1.501548 -0.120491 0.353278
v 1.099056 -0.064822 0.701990
v 1.099558 -0.060188 0.353278
v 1.257306 -0.080436 0.353278
v 1.256697 -0.084742 0.701990
v 1.098633 -0.068334 0.942870
v 1.255844 -0.090782 0.942032
v 0.907325 -0.037850 0.353278
v 0.906747 -0.043193 0.701990
v 0.906228 -0.049113 0.942544
v 0.251080 -0.003303 -0.692857
v 0.511198 -0.006518 -0.692857
v 0.511254 -0.003855 -0.344145
v 0.358835 -0.002428 -0.344145
v 0.226026 -0.020409 -0.927756
v -0.042895 -0.012463 -0.923665
v 0.733538 -0.024755 -0.692857
v 0.734018 -0.018540 -0.344145
v 0.732580 -0.037165 -0.932039
v 0.510744 -0.028227 -0.931846
v 1.501009 -0.122609 -0.692857
v 1.501548 -0.120491 -0.344145
v 1.099056 -0.064822 -0.692857
v 1.256697 -0.084742 -0.692857
v 1.257306 -0.080436 -0.344145
v 1.099558 -0.060188 -0.344145
v 1.255844 -0.090782 -0.932898
v 1.098633 -0.068334 -0.933737
v 0.906747 -0.043193 -0.692857
v 0.907325 -0.037850 -0.344145
v 0.906228 -0.049113 -0.933411
v 0.511309 -0.001192 0.004566
v 0.734498 -0.012324 0.004567
v 1.502087 -0.118373 0.004567
v 1.257927 -0.076043 0.004567
v 1.100063 -0.055520 0.004567
v 0.907906 -0.032507 0.004567
vn 0.0468 0.9977 0.0488
vn 0.0367 0.9993 0.0098
vn 0.0100 0.9999 0.0050
vn 0.0192 0.9983 0.0550
vn 0.0874 0.9954 0.0383
vn 0.0883 0.9960 0.0170
vn 0.0395 0.9963 0.0768
vn 0.0274 0.9968 0.0755
vn 0.1409 0.9899 0.0174
vn 0.1446 0.9894 0.0107
vn 0.1216 0.9925 0.0134
vn 0.1189 0.9928 0.0144
vn 0.1041 0.9943 0.0232
vn 0.1128 0.9935 0.0151
vn 0.1554 0.9877 0.0151
vn 0.1618 0.9868 0.0062
vn 0.1454 0.9891 0.0254
vn 0.0618 0.9971 0.0437
vn 0.0839 0.9962 0.0247
vn 0.1201 0.9925 0.0209
vn 0.0209 0.9998 -0.0000
vn -0.0037 1.0000 -0.0000
vn 0.0856 0.9963 -0.0000
vn 0.1497 0.9887 -0.0000
vn 0.1239 0.9923 -0.0000
vn 0.1160 0.9933 -0.0000
vn 0.1673 0.9859 -0.0000
vn 0.0283 0.9967 0.0756
vn 0.0468 0.9977 -0.0488
vn 0.0192 0.9983 -0.0550
vn 0.0100 0.9999 -0.0050
vn 0.0367 0.9993 -0.0098
vn 0.0874 0.9954 -0.0383
vn 0.0883 0.9960 -0.0170
vn 0.0395 0.9963 -0.0768
vn 0.0274 0.9968 -0.0755
vn 0.1409 0.9899 -0.0174
vn 0.1189 0.9928 -0.0144
vn 0.1216 0.9925 -0.0134
vn 0.1446 0.9894 -0.0107
vn 0.1041 0.9943 -0.0232
vn 0.1128 0.9935 -0.0151
vn 0.1554 0.9877 -0.0151
vn 0.1618 0.9868 -0.0062
vn 0.1454 0.9891 -0.0254
vn 0.0618 0.9971 -0.0437
vn 0.0839 0.9962 -0.0247
vn 0.1201 0.9925 -0.0209
vn 0.0283 0.9967 -0.0756
vt 0.143459 0.787810
vt 0.145104 0.643905
vt 0.250000 0.643905
vt 0.250000 0.787810
vt 0.130142 0.787810
vt 0.131992 0.643905
vt 0.135874 0.875000
vt 0.192937 0.875000
vt 0.103507 0.787810
vt 0.105768 0.643905
vt 0.113920 0.643905
vt 0.111783 0.787810
vt 0.121869 0.787810
vt 0.123843 0.643905
vt 0.090189 0.787810
vt 0.092656 0.643905
vt 0.093077 0.875000
vt 0.121609 0.875000
vt 0.112748 0.875000
vt 0.101941 0.875000
vt 0.146749 0.500000
vt 0.250000 0.500000
vt 0.133842 0.500000
vt 0.108029 0.500000
vt 0.116056 0.500000
vt 0.125818 0.500000
vt 0.095123 0.500000
vt 0.250000 0.875000
s 1
g off
g Cofre_02_-_Default
usemtl 02_-_Default
f 5/1/1 4/2/2 3/3/3
f 3/3/3 2/4/4 5/1/1
f 9/5/5 8/6/6 4/2/2
f 4/2/2 5/1/1 9/5/5
f 10/7/7 5/1/1 2/4/4
f 2/4/4 7/8/8 10/7/7
f 17/9/9 16/10/10 15/11/11
f 15/11/11 14/12/12 17/9/9
f 21/13/13 20/14/14 8/6/6
f 8/6/6 9/5/5 21/13/13
f 12/15/15 13/16/16 16/10/10
f 16/10/10 17/9/9 12/15/15
f 12/15/15 17/9/9 19/17/17
f 11/18/18 22/19/19 21/13/13
f 21/13/13 9/5/5 11/18/18
f 10/7/7 11/18/18 9/5/5
f 9/5/5 5/1/1 10/7/7
f 18/20/20 19/17/17 17/9/9
f 17/9/9 14/12/12 18/20/20
f 4/2/2 44/21/21 1/22/22
f 1/22/22 3/3/3 4/2/2
f 45/23/23 44/21/21 4/2/2
f 4/2/2 8/6/6 45/23/23
f 47/24/24 48/25/25 15/11/11
f 15/11/11 16/10/10 47/24/24
f 49/26/26 45/23/23 8/6/6
f 8/6/6 20/14/14 49/26/26
f 46/27/27 47/24/24 16/10/10
f 16/10/10 13/16/16 46/27/27
f 2/4/4 6/28/28 7/8/8
f 14/12/12 15/11/11 20/14/14
f 20/14/14 21/13/13 14/12/12
f 21/13/13 22/19/19 18/20/20
f 18/20/20 14/12/12 21/13/13
f 15/11/11 48/25/25 49/26/26
f 49/26/26 20/14/14 15/11/11
f 24/1/29 23/4/30 26/3/31
f 26/3/31 25/2/32 24/1/29
f 29/5/33 24/1/29 25/2/32
f 25/2/32 30/6/34 29/5/33
f 32/7/35 27/8/36 23/4/30
f 23/4/30 24/1/29 32/7/35
f 36/9/37 35/12/38 38/11/39
f 38/11/39 37/10/40 36/9/37
f 41/13/41 29/5/33 30/6/34
f 30/6/34 42/14/42 41/13/41
f 33/15/43 36/9/37 37/10/40
f 37/10/40 34/16/44 33/15/43
f 39/17/45 36/9/37 33/15/43
f 31/18/46 29/5/33 41/13/41
f 41/13/41 43/19/47 31/18/46
f 32/7/35 24/1/29 29/5/33
f 29/5/33 31/18/46 32/7/35
f 40/20/48 35/12/38 36/9/37
f 36/9/37 39/17/45 40/20/48
f 25/2/32 26/3/31 1/22/22
f 1/22/22 44/21/21 25/2/32
f 45/23/23 30/6/34 25/2/32
f 25/2/32 44/21/21 45/23/23
f 47/24/24 37/10/40 38/11/39
f 38/11/39 48/25/25 47/24/24
f 49/26/26 42/14/42 30/6/34
f 30/6/34 45/23/23 49/26/26
f 46/27/27 34/16/44 37/10/40
f 37/10/40 47/24/24 46/27/27
f 23/4/30 27/8/36 28/28/49
f 35/12/38 41/13/41 42/14/42
f 42/14/42 38/11/39 35/12/38
f 41/13/41 35/12/38 40/20/48
f 40/20/48 43/19/47 41/13/41
f 38/11/39 42/14/42 49/26/26
f 49/26/26 48/25/25 38/11/39
